<svg width="360" height="640" viewBox="0 0 360 640" fill="none" xmlns="http://www.w3.org/2000/svg">
<g clip-path="url(#clip0)">
<rect width="360" height="640" fill="white"/>
<rect x="-0.15" y="583.85" width="360.3" height="56.3" fill="#FAFAFA" stroke="black" stroke-width="0.3"/>
<rect width="72" height="56" transform="translate(288 584)" fill="#FAFAFA"/>
<path d="M324 602.222C329.391 602.222 333.778 606.609 333.778 612C333.778 617.391 329.391 621.778 324 621.778C318.609 621.778 314.222 617.391 314.222 612C314.222 606.609 318.609 602.222 324 602.222ZM324 601C317.925 601 313 605.925 313 612C313 618.075 317.925 623 324 623C330.075 623 335 618.075 335 612C335 605.925 330.075 601 324 601Z" fill="#7D7D7D"/>
<path d="M325.329 613.139C326.33 613.139 327.082 612.885 327.587 612.375C328.092 611.866 328.344 611.152 328.344 610.235C328.344 609.317 328.092 608.603 327.587 608.094C327.082 607.585 326.329 607.33 325.329 607.33H321.558V612.038H320.267V613.14H321.558V614.189H320.267V615.291H321.558V617.159H322.866V615.291H326.398V614.189H322.866V613.14H325.329V613.139ZM322.866 608.431H324.888C325.632 608.431 326.176 608.585 326.52 608.892C326.864 609.2 327.036 609.647 327.036 610.234C327.036 610.822 326.864 611.269 326.52 611.577C326.176 611.884 325.632 612.038 324.888 612.038H322.866V608.431Z" fill="#7D7D7D"/>
<path d="M328.353 603.087L327.224 602.619L326.709 603.862L327.838 604.33L328.353 603.087Z" fill="#7D7D7D"/>
<path d="M331.432 605.432L330.568 604.567L329.617 605.518L330.481 606.382L331.432 605.432Z" fill="#7D7D7D"/>
<path d="M333.38 608.777L332.913 607.648L331.67 608.162L332.138 609.291L333.38 608.777Z" fill="#7D7D7D"/>
<path d="M333.9 611.389H332.555V612.611H333.9V611.389Z" fill="#7D7D7D"/>
<path d="M333.379 615.224L332.136 614.709L331.668 615.838L332.911 616.353L333.379 615.224Z" fill="#7D7D7D"/>
<path d="M331.432 618.568L330.481 617.617L329.617 618.481L330.568 619.432L331.432 618.568Z" fill="#7D7D7D"/>
<path d="M328.353 620.913L327.838 619.671L326.709 620.138L327.224 621.381L328.353 620.913Z" fill="#7D7D7D"/>
<path d="M324.611 620.555H323.389V621.9H324.611V620.555Z" fill="#7D7D7D"/>
<path d="M321.292 620.138L320.163 619.67L319.648 620.913L320.777 621.38L321.292 620.138Z" fill="#7D7D7D"/>
<path d="M318.383 618.481L317.519 617.617L316.568 618.568L317.432 619.432L318.383 618.481Z" fill="#7D7D7D"/>
<path d="M316.33 615.838L315.862 614.709L314.62 615.224L315.088 616.353L316.33 615.838Z" fill="#7D7D7D"/>
<path d="M315.445 611.389H314.1V612.611H315.445V611.389Z" fill="#7D7D7D"/>
<path d="M316.33 608.161L315.088 607.646L314.62 608.776L315.862 609.29L316.33 608.161Z" fill="#7D7D7D"/>
<path d="M318.383 605.518L317.432 604.568L316.568 605.432L317.519 606.382L318.383 605.518Z" fill="#7D7D7D"/>
<path d="M321.291 603.862L320.776 602.62L319.647 603.087L320.161 604.329L321.291 603.862Z" fill="#7D7D7D"/>
<path d="M324.611 602.1H323.389V603.444H324.611V602.1Z" fill="#7D7D7D"/>
<path d="M324 604.394C328.19 604.394 331.599 607.806 331.599 612C331.599 616.19 328.19 619.598 324 619.598C319.81 619.598 316.402 616.19 316.402 612C316.402 607.806 319.81 604.394 324 604.394ZM324 603.444C319.279 603.444 315.452 607.279 315.452 612C315.452 616.721 319.279 620.548 324 620.548C328.721 620.548 332.549 616.721 332.549 612C332.549 607.279 328.721 603.444 324 603.444Z" fill="#7D7D7D"/>
<rect width="72" height="56" transform="translate(216 584)" fill="#FAFAFA"/>
<path d="M260.966 603H243.332L241.397 607.621H262.578L260.966 603Z" fill="black"/>
<path d="M244.423 607.973H243.158H242.786H241.397V609.263C241.397 609.896 241.918 610.389 242.588 610.389H243.158H243.232C243.902 610.389 244.423 609.896 244.423 609.263C244.423 609.896 244.944 610.389 245.613 610.389H246.258C246.928 610.389 247.449 609.896 247.449 609.263C247.449 609.896 247.97 610.389 248.639 610.389H249.284C249.954 610.389 250.475 609.896 250.475 609.263C250.475 609.896 250.996 610.389 251.665 610.389H252.31C252.98 610.389 253.501 609.896 253.501 609.263C253.501 609.896 254.022 610.389 254.691 610.389H255.336C256.006 610.389 256.527 609.896 256.527 609.263C256.527 609.896 257.047 610.389 257.717 610.389H258.362C259.032 610.389 259.553 609.896 259.553 609.263C259.553 609.896 260.073 610.389 260.743 610.389H260.817H261.388C262.058 610.389 262.578 609.896 262.578 609.263V607.973H260.817H244.423V607.973Z" fill="black"/>
<path d="M261.189 620.593V610.764H260.743C260.272 610.764 259.825 610.553 259.552 610.248C259.255 610.577 258.833 610.764 258.362 610.764H257.717C257.246 610.764 256.799 610.553 256.526 610.248C256.229 610.577 255.807 610.764 255.336 610.764H254.691C254.22 610.764 253.798 610.553 253.501 610.248C253.203 610.577 252.781 610.764 252.31 610.764H251.665C251.194 610.764 250.772 610.553 250.475 610.248C250.177 610.577 249.755 610.764 249.284 610.764H248.639C248.168 610.764 247.746 610.553 247.449 610.248C247.151 610.577 246.729 610.764 246.258 610.764H245.613C245.142 610.764 244.72 610.553 244.423 610.248C244.125 610.577 243.703 610.764 243.232 610.764H242.786V620.593H241V622H263V620.593H261.189ZM253.352 617.731C253.352 617.919 253.178 618.083 252.98 618.083H245.068C244.869 618.083 244.696 617.919 244.696 617.731V612.688C244.696 612.5 244.869 612.336 245.068 612.336H252.98C253.178 612.336 253.352 612.5 253.352 612.688V617.731ZM259.18 620.757H258.436V613.04H255.237V620.733H254.493V612.688C254.493 612.5 254.666 612.336 254.865 612.336H258.808C259.007 612.336 259.18 612.5 259.18 612.688V620.757ZM255.51 616.535C255.51 616.277 255.733 616.042 256.03 616.042C256.303 616.042 256.551 616.253 256.551 616.535C256.551 616.793 256.328 617.027 256.03 617.027C255.733 617.027 255.51 616.816 255.51 616.535Z" fill="black"/>
<rect width="72" height="56" transform="translate(144 584)" fill="#FAFAFA"/>
<path d="M176.815 622C174.2 622 172.073 619.587 172.073 616.622H174.111C174.111 618.475 175.324 619.983 176.815 619.983C178.29 619.983 179.537 618.433 179.537 616.599V607.356C179.537 604.403 181.656 602 184.259 602C186.874 602 189 604.413 189 607.378H186.963C186.963 605.525 185.75 604.017 184.259 604.017C182.779 604.017 181.576 605.515 181.576 607.355V616.599C181.576 619.577 179.439 622 176.815 622Z" fill="#7D7D7D"/>
<path d="M173.019 608.089C170.8 608.089 169 609.87 169 612.067C169 614.264 170.8 616.044 173.019 616.044C175.239 616.044 177.038 614.264 177.038 612.067C177.038 609.87 175.24 608.089 173.019 608.089ZM173.795 613.396L173.6 612.863H172.448L172.234 613.396H171.364L172.583 610.258H173.481L174.675 613.396H173.795Z" fill="#7D7D7D"/>
<path d="M172.678 612.247H173.381L173.024 611.232L172.678 612.247Z" fill="#7D7D7D"/>
<path d="M188.016 612.103H187.845V612.756H188.032C188.299 612.756 188.469 612.713 188.542 612.628C188.587 612.579 188.609 612.511 188.607 612.428C188.607 612.333 188.581 612.259 188.527 612.205C188.458 612.138 188.288 612.103 188.016 612.103Z" fill="#7D7D7D"/>
<path d="M188.312 611.388C188.363 611.338 188.389 611.268 188.389 611.179C188.389 611.095 188.363 611.024 188.312 610.968C188.248 610.905 188.143 610.874 187.997 610.874H187.845V611.487H187.997C188.143 611.487 188.248 611.454 188.312 611.388Z" fill="#7D7D7D"/>
<path d="M187.981 608.021C185.761 608.021 183.962 609.801 183.962 611.998C183.962 614.195 185.761 615.975 187.981 615.975C190.201 615.975 192 614.195 192 611.998C192 609.801 190.201 608.021 187.981 608.021ZM189.195 613.099C189.003 613.297 188.718 613.396 188.34 613.396H187.023V610.257H188.257C188.572 610.257 188.805 610.338 188.954 610.498C189.085 610.638 189.15 610.832 189.15 611.08C189.15 611.219 189.119 611.348 189.058 611.468C188.994 611.585 188.906 611.668 188.796 611.715C188.97 611.734 189.111 611.797 189.22 611.904C189.359 612.04 189.429 612.232 189.429 612.48C189.429 612.739 189.351 612.945 189.195 613.099Z" fill="#7D7D7D"/>
<rect width="72" height="56" transform="translate(72 584)" fill="#FAFAFA"/>
<path d="M101.677 621.106C101.669 621.011 101.671 621.009 101.669 620.998C101.493 620.787 100.791 619.577 100.768 619.442C100.612 618.512 100.128 618.078 99.1563 617.938C99.0009 617.916 98.8787 617.797 98.8559 617.644C98.7721 617.088 98.1194 616.77 97.9475 616.696C98.7555 618.464 100.051 619.996 101.677 621.106Z" fill="#7D7D7D"/>
<path d="M98.9336 608.836C99.838 608.615 99.7585 608.22 100.002 608.095C100.094 608.046 100.365 607.855 100.373 607.641C100.379 607.494 100.478 607.366 100.622 607.322C101.653 606.984 101.394 605.469 101.816 605.189C101.828 605.18 102.812 604.515 103.339 603.688C102.614 603.688 102.574 603.39 102.464 603.128C100.913 603.992 99.6602 605.175 98.7466 606.569C98.7523 606.686 98.6768 608.103 98.9336 608.836Z" fill="#7D7D7D"/>
<path d="M111.146 616.3C111.146 616.3 110.654 615.115 109.809 613.095C108.564 612.548 108.241 612.834 107.779 612.834C107.096 612.834 105.673 612.339 106.143 611.811C105.976 611.792 105.612 611.809 105.17 611.882C104.812 612.138 104.354 612.251 103.91 612.142C103.702 612.333 103.521 612.55 103.494 612.649C103.526 612.769 103.492 612.897 103.402 612.986C102.933 613.447 102.321 614.296 102.495 614.653C102.961 615.611 101.718 615.411 103.745 616.899C103.959 616.858 104.256 616.815 104.468 616.863C105.012 616.645 105.716 616.511 106.035 616.999C106.83 616.892 106.837 617.432 106.614 618.181C107.753 618.079 107.07 620.487 107.514 621.759C108.416 621.529 108.339 621.133 108.582 621.011C109.113 620.732 108.83 620.354 109.201 620.241C110.231 619.909 109.976 618.388 110.398 618.107C110.41 618.099 111.389 617.436 111.915 616.611C111.65 616.602 111.247 616.542 111.146 616.3Z" fill="#7D7D7D"/>
<path d="M117.661 615.969C117.593 616.08 117.476 616.143 117.351 616.143C117.302 616.143 117.252 616.133 117.206 616.115C117.042 616.042 116.957 615.857 117.014 615.689C117.388 614.534 116.836 612.993 115.39 612.396C115.255 612.34 115.106 612.277 114.96 612.2C115.303 612.411 116.334 612.664 116.214 613.767C116.07 615.159 114.308 615.352 113.596 614.339C113.102 613.651 113.36 613.023 112.601 612.664C112.381 612.563 112.107 612.434 111.947 612.144C111.594 611.5 112.327 610.697 112.121 610.48C111.984 610.365 111.325 610.554 110.917 610.187C110.383 609.701 110.802 609.017 110.984 608.599C110.594 608.969 110.27 609.419 110.047 609.911C109.99 610.04 109.851 610.117 109.713 610.117C109.57 610.114 109.443 610.026 109.393 609.894C109.268 609.587 109.073 609.304 108.828 609.074C108.886 609.753 108.014 610.681 107.591 610.309C107.295 610.038 107.742 609.71 107.343 609.241C106.699 608.495 105.82 609.488 105.705 609.524C105.328 609.793 104.809 610.096 104.245 610.006C103.539 609.884 103.089 609.018 103.569 608.488C103.974 608.045 104.762 608.194 104.799 608.013C104.799 607.834 104.343 607.819 104.372 607.458C104.41 607.009 105.046 607.197 106.721 605.902C107.014 605.509 107.568 605.944 107.893 605.944C108.509 605.92 109.142 605.04 110.942 603.498C111.105 602.929 111.301 602.631 111.475 602.333C110.32 601.921 109.098 601.715 107.84 601.715C106.163 601.715 104.568 602.085 103.093 602.8C103.122 602.867 103.147 602.926 103.168 602.971C103.451 603.051 103.751 602.877 103.786 602.877C104.069 602.726 104.378 602.985 104.301 603.271C103.985 604.43 102.688 605.428 102.315 605.696C102.041 606.526 102.113 607.368 101.047 607.898C100.933 608.292 100.603 608.547 100.432 608.655C100.076 609.232 98.8636 609.801 98.5029 609.486C98.375 609.371 98.1192 608.99 98.0481 607.79C97.3624 609.2 97 610.752 97 612.35C97 613.345 97.1457 614.322 97.4193 615.264C97.6822 615.344 98.0552 615.55 98.3039 616.087C98.6059 616.23 99.2739 616.607 99.4977 617.294C100.584 617.533 101.216 618.057 101.459 619.269C102.326 620.858 102.37 620.629 102.383 621.014C102.386 621.122 102.397 621.3 102.948 621.855C107.837 624.284 114.113 622.811 117.138 617.793C117.732 616.809 118.154 615.773 118.407 614.709C118.183 615.082 117.934 615.498 117.661 615.969ZM109.627 620.819C109.517 621.213 109.183 621.464 109.009 621.572C108.651 622.157 107.755 622.5 107.321 622.5C106.389 622.5 106.721 619.356 106.565 618.896C106.329 618.988 106.081 619.041 105.907 618.816C105.705 618.544 105.899 618.166 106.007 617.699C105.762 617.706 105.552 617.588 105.435 617.375C105.399 617.381 105.201 617.294 104.628 617.556C104.522 617.605 104.394 617.602 104.294 617.542C103.785 617.542 103.679 617.714 103.452 617.556C101.001 615.789 102.09 615.447 101.853 614.953C101.452 614.133 102.393 613.02 102.784 612.612C102.816 612.179 103.289 611.729 103.605 611.478C103.823 611.294 103.984 611.485 104.255 611.485C104.554 611.485 104.781 611.293 104.785 611.293C105.05 611.07 107.253 610.831 106.899 611.907C107.532 612.209 107.86 612.144 108.174 612.078C108.79 611.987 110.264 612.347 110.412 612.703C111.12 614.388 111.589 615.518 111.745 615.895C112.086 615.967 112.327 615.798 112.363 615.798C112.638 615.651 112.956 615.9 112.878 616.192C112.562 617.35 111.272 618.345 110.896 618.613C110.611 619.581 110.628 620.327 109.627 620.819ZM114.434 619.133C113.997 619.385 113.703 619.887 113.703 620.386C113.703 620.564 113.568 620.71 113.386 620.731C113.35 620.735 111.71 620.913 111.812 620.902C111.652 620.902 111.51 620.794 111.468 620.641C111.315 620.044 111.741 619.524 111.969 619.245C112.21 619.045 112.753 617.968 113.315 618.254C113.351 618.216 113.386 618.174 113.404 618.142C113.473 617.486 114.441 617.948 114.601 618.763C114.633 618.91 114.562 619.057 114.434 619.133Z" fill="#7D7D7D"/>
<path d="M110.778 604.587L110.569 604.779C108.702 606.471 108.438 606.935 107.147 606.461C106.593 606.886 105.996 607.26 105.36 607.574C105.693 608.036 105.474 608.698 104.614 608.823C104.168 608.879 104.033 608.904 104.095 609.078C104.138 609.196 104.252 609.297 104.365 609.318C105.046 609.428 105.632 608.414 106.568 608.292C107.191 608.215 107.842 608.53 108.114 609.165C108.159 609.032 108.063 608.667 107.787 608.484C107.641 608.39 107.588 608.205 107.662 608.048C107.737 607.891 107.918 607.811 108.085 607.86C108.742 608.052 109.325 608.477 109.72 609.032C110.078 608.463 110.547 607.982 111.105 607.609C111.244 607.518 111.429 607.532 111.549 607.647C112.291 608.349 111.129 609.44 111.4 609.674C111.551 609.813 112.199 609.601 112.615 609.981C113.117 610.483 112.698 611.237 112.693 611.272C112.464 611.811 112.511 611.849 112.903 612.033C113.986 612.517 113.779 613.392 114.179 613.938C114.402 614.255 114.925 614.378 115.234 614.182C115.531 613.988 115.612 613.479 115.369 613.24C115.143 613.011 114.672 612.916 114.349 612.612C113.913 612.213 113.837 611.448 114.267 610.997C113.124 609.628 110.6 606.336 110.778 604.587Z" fill="#7D7D7D"/>
<path d="M117.998 608.624C117.057 610.023 116.065 611.175 116.051 611.185C115.845 611.422 115.55 611.555 115.241 611.555C115.644 611.776 117.418 612.261 117.788 614.367C117.792 614.36 117.796 614.357 117.799 614.35C118.169 613.729 118.471 613.23 118.655 612.87C118.698 611.454 118.527 610.177 118.14 609.011C118.094 608.882 118.048 608.753 117.998 608.624Z" fill="#7D7D7D"/>
<path d="M113.099 618.979C113.059 619.02 112.321 619.884 112.201 620.16L113.016 620.07C113.082 619.652 113.276 619.256 113.563 618.942C113.414 619.028 113.25 619.052 113.099 618.979Z" fill="#7D7D7D"/>
<path d="M115.241 601C114.175 601 113.155 601.45 112.445 602.228C112.288 602.396 112.15 602.577 112.036 602.769C111.674 603.345 111.485 604.011 111.485 604.692C111.485 606.611 114.612 610.316 114.967 610.735C115.035 610.812 115.134 610.857 115.241 610.857C115.344 610.857 115.443 610.812 115.511 610.735C115.571 610.665 116.975 609.022 117.984 607.336C117.987 607.329 117.994 607.322 117.998 607.315C118.662 606.209 119 605.327 119 604.692C119 602.657 117.312 601 115.241 601ZM115.241 606.101C114.385 606.101 113.688 605.417 113.688 604.576C113.688 603.736 114.385 603.048 115.241 603.048C116.097 603.048 116.797 603.736 116.797 604.576C116.797 605.417 116.097 606.101 115.241 606.101Z" fill="#7D7D7D"/>
<rect width="72" height="56" transform="translate(0 584)" fill="#FAFAFA"/>
<path d="M46.8699 610.758L36.2106 601.091C36.0797 600.97 35.9225 600.97 35.7916 601.091L25.1322 610.758C24.8703 611 25.0275 611.455 25.3417 611.455H26.2584V621.606C26.2584 622.364 26.7822 622.97 27.437 622.97H33.094V619.515C33.094 618.152 34.3511 617.061 35.8963 617.061C37.4415 617.061 38.6987 618.152 38.6987 619.515V623H44.5128C45.1676 623 45.6914 622.394 45.6914 621.636V611.455H46.608C46.9747 611.455 47.1318 610.97 46.8699 610.758Z" fill="#7D7D7D"/>
<path d="M360 24H0V80H360V24Z" fill="#2E7D32"/>
<path d="M333 41C330.653 41 328.75 42.9028 328.75 45.25C328.75 47.5972 330.653 49.5 333 49.5C335.347 49.5 337.25 47.5972 337.25 45.25C337.25 42.9028 335.347 41 333 41ZM333 52C327.477 52 323 56.4771 323 62H343C343 56.4771 338.523 52 333 52V52Z" fill="#F9F9F9"/>
<path d="M67.6484 44.7812L71.75 55.6797L75.8418 44.7812H79.0352V59H76.5742V54.3125L76.8184 48.043L72.6191 59H70.8516L66.6621 48.0527L66.9062 54.3125V59H64.4453V44.7812H67.6484ZM81.291 53.6191C81.291 52.584 81.4961 51.653 81.9062 50.8262C82.3164 49.9928 82.8926 49.3548 83.6348 48.9121C84.377 48.4629 85.2298 48.2383 86.1934 48.2383C87.6191 48.2383 88.7747 48.6973 89.6602 49.6152C90.5521 50.5332 91.0339 51.7507 91.1055 53.2676L91.1152 53.8242C91.1152 54.8659 90.9134 55.7969 90.5098 56.6172C90.1126 57.4375 89.5397 58.0723 88.791 58.5215C88.0488 58.9707 87.1895 59.1953 86.2129 59.1953C84.722 59.1953 83.5273 58.7005 82.6289 57.7109C81.737 56.7148 81.291 55.39 81.291 53.7363V53.6191ZM83.6641 53.8242C83.6641 54.9115 83.8887 55.7643 84.3379 56.3828C84.7871 56.9948 85.4121 57.3008 86.2129 57.3008C87.0137 57.3008 87.6354 56.9883 88.0781 56.3633C88.5273 55.7383 88.752 54.8236 88.752 53.6191C88.752 52.5514 88.5208 51.7051 88.0586 51.0801C87.6029 50.4551 86.9811 50.1426 86.1934 50.1426C85.4186 50.1426 84.8034 50.4518 84.3477 51.0703C83.8919 51.6823 83.6641 52.6003 83.6641 53.8242ZM99.7188 48.4336H102.082V59H99.7188V51.9492L95.5781 59H93.2148V48.4336H95.5781V55.4844L99.7188 48.4336ZM117.59 51.3242C117.59 51.793 117.447 52.2259 117.16 52.623C116.88 53.0137 116.483 53.3262 115.969 53.5605C117.18 53.9837 117.785 54.8008 117.785 56.0117C117.785 56.9818 117.391 57.7565 116.604 58.3359C115.816 58.9089 114.761 59.1953 113.439 59.1953C112.632 59.1953 111.896 59.0618 111.232 58.7949C110.568 58.5215 110.051 58.1374 109.68 57.6426C109.309 57.1413 109.123 56.5488 109.123 55.8652H111.486C111.486 56.2949 111.678 56.6562 112.062 56.9492C112.447 57.2357 112.932 57.3789 113.518 57.3789C114.097 57.3789 114.556 57.2454 114.895 56.9785C115.24 56.7051 115.412 56.3503 115.412 55.9141C115.412 55.3997 115.262 55.0286 114.963 54.8008C114.663 54.5729 114.201 54.459 113.576 54.459H111.877V52.75H113.635C114.696 52.737 115.227 52.3008 115.227 51.4414C115.227 51.0117 115.074 50.6764 114.768 50.4355C114.462 50.1947 114.042 50.0742 113.508 50.0742C112.987 50.0742 112.548 50.2044 112.189 50.4648C111.831 50.7188 111.652 51.041 111.652 51.4316H109.289C109.289 50.5007 109.68 49.7389 110.461 49.1465C111.242 48.5475 112.235 48.248 113.439 48.248C114.748 48.248 115.767 48.515 116.496 49.0488C117.225 49.5827 117.59 50.3411 117.59 51.3242ZM126.115 59C126.011 58.7982 125.92 58.4694 125.842 58.0137C125.087 58.8014 124.162 59.1953 123.068 59.1953C122.007 59.1953 121.141 58.8926 120.471 58.2871C119.8 57.6816 119.465 56.9329 119.465 56.041C119.465 54.9147 119.882 54.0521 120.715 53.4531C121.555 52.8477 122.753 52.5449 124.309 52.5449H125.764V51.8516C125.764 51.3047 125.611 50.8685 125.305 50.543C124.999 50.2109 124.533 50.0449 123.908 50.0449C123.368 50.0449 122.925 50.1816 122.58 50.4551C122.235 50.722 122.062 51.0638 122.062 51.4805H119.689C119.689 50.901 119.882 50.3607 120.266 49.8594C120.65 49.3516 121.171 48.9544 121.828 48.668C122.492 48.3815 123.231 48.2383 124.045 48.2383C125.282 48.2383 126.268 48.5508 127.004 49.1758C127.74 49.7943 128.117 50.6667 128.137 51.793V56.5586C128.137 57.5091 128.27 58.2676 128.537 58.834V59H126.115ZM123.508 57.291C123.977 57.291 124.416 57.1771 124.826 56.9492C125.243 56.7214 125.555 56.4154 125.764 56.0312V54.0391H124.484C123.605 54.0391 122.945 54.1921 122.502 54.498C122.059 54.804 121.838 55.237 121.838 55.7969C121.838 56.2526 121.988 56.6172 122.287 56.8906C122.593 57.1576 123 57.291 123.508 57.291ZM139.582 59H137.209V50.3477H133.088V59H130.715V48.4336H139.582V59ZM148.42 59C148.316 58.7982 148.225 58.4694 148.146 58.0137C147.391 58.8014 146.467 59.1953 145.373 59.1953C144.312 59.1953 143.446 58.8926 142.775 58.2871C142.105 57.6816 141.77 56.9329 141.77 56.041C141.77 54.9147 142.186 54.0521 143.02 53.4531C143.859 52.8477 145.057 52.5449 146.613 52.5449H148.068V51.8516C148.068 51.3047 147.915 50.8685 147.609 50.543C147.303 50.2109 146.838 50.0449 146.213 50.0449C145.673 50.0449 145.23 50.1816 144.885 50.4551C144.54 50.722 144.367 51.0638 144.367 51.4805H141.994C141.994 50.901 142.186 50.3607 142.57 49.8594C142.954 49.3516 143.475 48.9544 144.133 48.668C144.797 48.3815 145.536 48.2383 146.35 48.2383C147.587 48.2383 148.573 48.5508 149.309 49.1758C150.044 49.7943 150.422 50.6667 150.441 51.793V56.5586C150.441 57.5091 150.575 58.2676 150.842 58.834V59H148.42ZM145.812 57.291C146.281 57.291 146.721 57.1771 147.131 56.9492C147.548 56.7214 147.86 56.4154 148.068 56.0312V54.0391H146.789C145.91 54.0391 145.249 54.1921 144.807 54.498C144.364 54.804 144.143 55.237 144.143 55.7969C144.143 56.2526 144.292 56.6172 144.592 56.8906C144.898 57.1576 145.305 57.291 145.812 57.291ZM157.268 57.3008C157.86 57.3008 158.352 57.1283 158.742 56.7832C159.133 56.4382 159.341 56.0117 159.367 55.5039H161.604C161.577 56.1615 161.372 56.7767 160.988 57.3496C160.604 57.916 160.083 58.3652 159.426 58.6973C158.768 59.0293 158.059 59.1953 157.297 59.1953C155.819 59.1953 154.647 58.7168 153.781 57.7598C152.915 56.8027 152.482 55.4811 152.482 53.7949V53.5508C152.482 51.9427 152.912 50.6569 153.771 49.6934C154.631 48.7233 155.803 48.2383 157.287 48.2383C158.544 48.2383 159.566 48.6061 160.354 49.3418C161.148 50.071 161.564 51.0312 161.604 52.2227H159.367C159.341 51.6172 159.133 51.1191 158.742 50.7285C158.358 50.3379 157.867 50.1426 157.268 50.1426C156.499 50.1426 155.907 50.4225 155.49 50.9824C155.074 51.5358 154.862 52.3789 154.855 53.5117V53.8926C154.855 55.0384 155.061 55.8945 155.471 56.4609C155.887 57.0208 156.486 57.3008 157.268 57.3008ZM165.949 51.793H168.273C169.139 51.793 169.895 51.9427 170.539 52.2422C171.184 52.5417 171.672 52.9616 172.004 53.502C172.342 54.0423 172.512 54.6706 172.512 55.3867C172.512 56.474 172.128 57.3464 171.359 58.0039C170.591 58.6615 169.569 58.9935 168.293 59H163.576V48.4336H165.949V51.793ZM176.643 59H174.27V48.4336H176.643V59ZM165.949 53.6973V57.1055H168.264C168.843 57.1055 169.299 56.9622 169.631 56.6758C169.969 56.3828 170.139 55.9694 170.139 55.4355C170.139 54.9017 169.973 54.4818 169.641 54.1758C169.315 53.8633 168.872 53.7038 168.312 53.6973H165.949Z" fill="#F5F7FF"/>
<path d="M22.8297 46.2266L17.2318 51.935C17.0834 52.0863 17 52.2916 17 52.5057C17 52.7197 17.0834 52.925 17.2318 53.0763L22.8206 58.7734C22.9699 58.9204 23.1699 59.0018 23.3775 59C23.5851 58.9981 23.7836 58.9132 23.9304 58.7636C24.0772 58.6139 24.1604 58.4115 24.1622 58.1998C24.164 57.9882 24.0842 57.7843 23.94 57.6321L19.6983 53.3072H35.2083C35.4183 53.3072 35.6197 53.2221 35.7681 53.0708C35.9166 52.9194 36 52.7141 36 52.5C36 52.2859 35.9166 52.0806 35.7681 51.9292C35.6197 51.7779 35.4183 51.6928 35.2083 51.6928H19.7074L23.9491 47.3679C24.0934 47.2157 24.1731 47.0118 24.1713 46.8002C24.1695 46.5885 24.0863 46.3861 23.9395 46.2364C23.7927 46.0868 23.5942 46.0019 23.3866 46C23.179 45.9982 22.979 46.0796 22.8297 46.2266V46.2266Z" fill="white"/>
<path fill-rule="evenodd" clip-rule="evenodd" d="M0 0V24H360V0H0Z" fill="#1C4C1C"/>
<path d="M322.147 17H320.876V8.57129L318.326 9.50781V8.35938L321.949 6.99902H322.147V17ZM330.009 17H328.737V8.57129L326.188 9.50781V8.35938L329.811 6.99902H330.009V17ZM333.803 16.3369C333.803 16.1182 333.867 15.9359 333.994 15.79C334.126 15.6442 334.322 15.5713 334.582 15.5713C334.842 15.5713 335.038 15.6442 335.17 15.79C335.307 15.9359 335.375 16.1182 335.375 16.3369C335.375 16.5465 335.307 16.722 335.17 16.8633C335.038 17.0046 334.842 17.0752 334.582 17.0752C334.322 17.0752 334.126 17.0046 333.994 16.8633C333.867 16.722 333.803 16.5465 333.803 16.3369ZM333.81 10.3008C333.81 10.082 333.873 9.89974 334.001 9.75391C334.133 9.60807 334.329 9.53516 334.589 9.53516C334.849 9.53516 335.045 9.60807 335.177 9.75391C335.313 9.89974 335.382 10.082 335.382 10.3008C335.382 10.5104 335.313 10.6859 335.177 10.8271C335.045 10.9684 334.849 11.0391 334.589 11.0391C334.329 11.0391 334.133 10.9684 334.001 10.8271C333.873 10.6859 333.81 10.5104 333.81 10.3008ZM341.261 17H339.989V8.57129L337.439 9.50781V8.35938L341.062 6.99902H341.261V17ZM349.122 17H347.851V8.57129L345.301 9.50781V8.35938L348.924 6.99902H349.122V17Z" fill="white"/>
<path d="M265 19.1016L256.281 8.23828C259.117 6.24609 262.023 5.25 265 5.25C267.977 5.25 270.883 6.24609 273.719 8.23828L265 19.1016Z" fill="white"/>
<path d="M277.512 19.4883L292.488 4.51172V19.4883H277.512Z" fill="white"/>
<path d="M307.742 5.98828C308.023 5.98828 308.258 6.09375 308.445 6.30469C308.656 6.49219 308.762 6.72656 308.762 7.00781V18.5039C308.762 18.7852 308.656 19.0195 308.445 19.207C308.258 19.3945 308.023 19.4883 307.742 19.4883H302.258C301.977 19.4883 301.73 19.3945 301.52 19.207C301.332 19.0195 301.238 18.7852 301.238 18.5039V7.00781C301.238 6.72656 301.332 6.49219 301.52 6.30469C301.73 6.09375 301.977 5.98828 302.258 5.98828H303.488V4.51172H306.512V5.98828H307.742Z" fill="white"/>
<path d="M32.002 171H30.6826V166.399H25.665V171H24.3525V161.047H25.665V165.326H30.6826V161.047H32.002V171ZM38.7012 171C38.6283 170.854 38.569 170.594 38.5234 170.221C37.9355 170.831 37.2337 171.137 36.418 171.137C35.6888 171.137 35.0895 170.932 34.6201 170.521C34.1553 170.107 33.9229 169.583 33.9229 168.949C33.9229 168.179 34.2145 167.582 34.7979 167.158C35.3857 166.73 36.2106 166.516 37.2725 166.516H38.5029V165.935C38.5029 165.493 38.3708 165.142 38.1064 164.882C37.8421 164.618 37.4525 164.485 36.9375 164.485C36.4863 164.485 36.1081 164.599 35.8027 164.827C35.4974 165.055 35.3447 165.331 35.3447 165.654H34.0732C34.0732 165.285 34.2031 164.93 34.4629 164.588C34.7272 164.242 35.0827 163.968 35.5293 163.768C35.9805 163.567 36.4749 163.467 37.0127 163.467C37.8649 163.467 38.5326 163.681 39.0156 164.109C39.4987 164.533 39.7493 165.119 39.7676 165.866V169.271C39.7676 169.95 39.8542 170.49 40.0273 170.891V171H38.7012ZM36.6025 170.036C36.999 170.036 37.375 169.934 37.7305 169.729C38.0859 169.523 38.3434 169.257 38.5029 168.929V167.411H37.5117C35.9622 167.411 35.1875 167.865 35.1875 168.771C35.1875 169.168 35.3197 169.478 35.584 169.701C35.8483 169.924 36.1878 170.036 36.6025 170.036ZM45.1611 169.968L45.5986 169.428C46.0908 168.79 46.3711 167.833 46.4395 166.557L46.5557 163.604H51.3203V169.968H52.2705V173.174H51.0059V171H45.8447V173.174H44.5801L44.5869 169.968H45.1611ZM46.6582 169.968H50.0557V164.772H47.7793L47.7041 166.536C47.6266 168.008 47.278 169.152 46.6582 169.968ZM58.2383 171C58.1654 170.854 58.1061 170.594 58.0605 170.221C57.4727 170.831 56.7708 171.137 55.9551 171.137C55.2259 171.137 54.6266 170.932 54.1572 170.521C53.6924 170.107 53.46 169.583 53.46 168.949C53.46 168.179 53.7516 167.582 54.335 167.158C54.9229 166.73 55.7477 166.516 56.8096 166.516H58.04V165.935C58.04 165.493 57.9079 165.142 57.6436 164.882C57.3792 164.618 56.9896 164.485 56.4746 164.485C56.0234 164.485 55.6452 164.599 55.3398 164.827C55.0345 165.055 54.8818 165.331 54.8818 165.654H53.6104C53.6104 165.285 53.7402 164.93 54 164.588C54.2643 164.242 54.6198 163.968 55.0664 163.768C55.5176 163.567 56.012 163.467 56.5498 163.467C57.402 163.467 58.0697 163.681 58.5527 164.109C59.0358 164.533 59.2865 165.119 59.3047 165.866V169.271C59.3047 169.95 59.3913 170.49 59.5645 170.891V171H58.2383ZM56.1396 170.036C56.5361 170.036 56.9121 169.934 57.2676 169.729C57.623 169.523 57.8805 169.257 58.04 168.929V167.411H57.0488C55.4993 167.411 54.7246 167.865 54.7246 168.771C54.7246 169.168 54.8568 169.478 55.1211 169.701C55.3854 169.924 55.7249 170.036 56.1396 170.036ZM67.3301 171H66.0654V167.842H62.668V171H61.3965V163.604H62.668V166.81H66.0654V163.604H67.3301V171ZM75.4102 171H74.1455V167.842H70.748V171H69.4766V163.604H70.748V166.81H74.1455V163.604H75.4102V171ZM78.8281 166.153H80.749C81.5876 166.162 82.2507 166.381 82.7383 166.81C83.2259 167.238 83.4697 167.819 83.4697 168.553C83.4697 169.291 83.2191 169.883 82.7178 170.33C82.2165 170.777 81.542 171 80.6943 171H77.5635V163.604H78.8281V166.153ZM86.1084 171H84.8369V163.604H86.1084V171ZM78.8281 167.186V169.968H80.708C81.182 169.968 81.5488 169.847 81.8086 169.605C82.0684 169.359 82.1982 169.024 82.1982 168.601C82.1982 168.19 82.0706 167.855 81.8154 167.596C81.5648 167.331 81.2116 167.195 80.7559 167.186H78.8281ZM93.1016 163.604H94.3662V171H93.1016V165.606L89.6904 171H88.4258V163.604H89.6904V169.004L93.1016 163.604ZM93.4434 160.91C93.4434 161.462 93.2542 161.906 92.876 162.243C92.5023 162.576 92.0101 162.742 91.3994 162.742C90.7887 162.742 90.2943 162.574 89.916 162.236C89.5378 161.899 89.3486 161.457 89.3486 160.91H90.3809C90.3809 161.229 90.4674 161.48 90.6406 161.662C90.8138 161.84 91.0667 161.929 91.3994 161.929C91.7184 161.929 91.9668 161.84 92.1445 161.662C92.3268 161.484 92.418 161.234 92.418 160.91H93.4434ZM104.128 169.325L106.644 163.604H108.223V171H106.958V165.62L104.565 171H103.69L101.25 165.504V171H99.9854V163.604H101.626L104.128 169.325ZM109.925 167.233C109.925 166.509 110.066 165.857 110.349 165.278C110.636 164.7 111.032 164.253 111.538 163.938C112.049 163.624 112.63 163.467 113.281 163.467C114.288 163.467 115.102 163.815 115.722 164.513C116.346 165.21 116.658 166.137 116.658 167.295V167.384C116.658 168.104 116.519 168.751 116.241 169.325C115.968 169.895 115.574 170.339 115.059 170.658C114.548 170.977 113.96 171.137 113.295 171.137C112.292 171.137 111.479 170.788 110.854 170.091C110.235 169.394 109.925 168.471 109.925 167.322V167.233ZM111.196 167.384C111.196 168.204 111.385 168.863 111.764 169.359C112.146 169.856 112.657 170.104 113.295 170.104C113.938 170.104 114.448 169.854 114.826 169.353C115.204 168.847 115.394 168.14 115.394 167.233C115.394 166.422 115.2 165.766 114.812 165.265C114.43 164.759 113.919 164.506 113.281 164.506C112.657 164.506 112.153 164.754 111.771 165.251C111.388 165.748 111.196 166.459 111.196 167.384ZM122.503 169.325L125.019 163.604H126.598V171H125.333V165.62L122.94 171H122.065L119.625 165.504V171H118.36V163.604H120.001L122.503 169.325ZM131.704 171.137C130.701 171.137 129.886 170.809 129.257 170.152C128.628 169.492 128.313 168.61 128.313 167.507V167.274C128.313 166.541 128.452 165.887 128.73 165.312C129.013 164.734 129.405 164.283 129.906 163.959C130.412 163.631 130.959 163.467 131.547 163.467C132.508 163.467 133.256 163.784 133.789 164.417C134.322 165.05 134.589 165.957 134.589 167.138V167.664H129.578C129.596 168.393 129.808 168.983 130.214 169.435C130.624 169.881 131.144 170.104 131.772 170.104C132.219 170.104 132.597 170.013 132.907 169.831C133.217 169.649 133.488 169.407 133.721 169.106L134.493 169.708C133.873 170.66 132.944 171.137 131.704 171.137ZM131.547 164.506C131.036 164.506 130.608 164.693 130.262 165.066C129.915 165.436 129.701 165.955 129.619 166.625H133.324V166.529C133.288 165.887 133.115 165.39 132.805 165.039C132.495 164.684 132.076 164.506 131.547 164.506ZM142.102 171H140.837V167.842H137.439V171H136.168V163.604H137.439V166.81H140.837V163.604H142.102V171ZM149.635 164.629H147.153V171H145.889V164.629H143.455V163.604H149.635V164.629ZM156.758 169.147L158.48 163.604H159.834L156.86 172.142C156.4 173.372 155.669 173.987 154.666 173.987L154.427 173.967L153.955 173.878V172.853L154.297 172.88C154.725 172.88 155.058 172.793 155.295 172.62C155.536 172.447 155.735 172.13 155.89 171.67L156.17 170.918L153.531 163.604H154.912L156.758 169.147ZM164.558 171V163.604H167.442C168.427 163.604 169.181 163.777 169.705 164.123C170.234 164.465 170.498 164.968 170.498 165.634C170.498 165.976 170.396 166.285 170.19 166.563C169.985 166.837 169.682 167.047 169.281 167.192C169.728 167.297 170.086 167.502 170.354 167.808C170.628 168.113 170.765 168.478 170.765 168.901C170.765 169.58 170.514 170.1 170.013 170.46C169.516 170.82 168.812 171 167.9 171H164.558ZM165.822 167.753V169.981H167.914C168.443 169.981 168.837 169.883 169.097 169.688C169.361 169.492 169.493 169.216 169.493 168.86C169.493 168.122 168.951 167.753 167.866 167.753H165.822ZM165.822 166.741H167.456C168.641 166.741 169.233 166.395 169.233 165.702C169.233 165.009 168.673 164.652 167.552 164.629H165.822V166.741ZM177.006 171C176.933 170.854 176.874 170.594 176.828 170.221C176.24 170.831 175.538 171.137 174.723 171.137C173.993 171.137 173.394 170.932 172.925 170.521C172.46 170.107 172.228 169.583 172.228 168.949C172.228 168.179 172.519 167.582 173.103 167.158C173.69 166.73 174.515 166.516 175.577 166.516H176.808V165.935C176.808 165.493 176.675 165.142 176.411 164.882C176.147 164.618 175.757 164.485 175.242 164.485C174.791 164.485 174.413 164.599 174.107 164.827C173.802 165.055 173.649 165.331 173.649 165.654H172.378C172.378 165.285 172.508 164.93 172.768 164.588C173.032 164.242 173.387 163.968 173.834 163.768C174.285 163.567 174.78 163.467 175.317 163.467C176.17 163.467 176.837 163.681 177.32 164.109C177.803 164.533 178.054 165.119 178.072 165.866V169.271C178.072 169.95 178.159 170.49 178.332 170.891V171H177.006ZM174.907 170.036C175.304 170.036 175.68 169.934 176.035 169.729C176.391 169.523 176.648 169.257 176.808 168.929V167.411H175.816C174.267 167.411 173.492 167.865 173.492 168.771C173.492 169.168 173.624 169.478 173.889 169.701C174.153 169.924 174.493 170.036 174.907 170.036ZM183.021 170.104C183.473 170.104 183.867 169.968 184.204 169.694C184.541 169.421 184.728 169.079 184.765 168.669H185.961C185.938 169.093 185.792 169.496 185.523 169.879C185.255 170.262 184.895 170.567 184.443 170.795C183.997 171.023 183.523 171.137 183.021 171.137C182.014 171.137 181.212 170.802 180.615 170.132C180.023 169.457 179.727 168.537 179.727 167.37V167.158C179.727 166.438 179.859 165.798 180.123 165.237C180.387 164.677 180.766 164.242 181.258 163.932C181.755 163.622 182.34 163.467 183.015 163.467C183.844 163.467 184.532 163.715 185.079 164.212C185.631 164.709 185.924 165.354 185.961 166.146H184.765C184.728 165.668 184.546 165.276 184.218 164.971C183.894 164.661 183.493 164.506 183.015 164.506C182.372 164.506 181.873 164.738 181.518 165.203C181.167 165.663 180.991 166.331 180.991 167.206V167.445C180.991 168.298 181.167 168.954 181.518 169.414C181.868 169.874 182.37 170.104 183.021 170.104ZM196.898 171H195.634V167.842H192.236V171H190.965V163.604H192.236V166.81H195.634V163.604H196.898V171ZM202.005 171.137C201.002 171.137 200.187 170.809 199.558 170.152C198.929 169.492 198.614 168.61 198.614 167.507V167.274C198.614 166.541 198.753 165.887 199.031 165.312C199.314 164.734 199.706 164.283 200.207 163.959C200.713 163.631 201.26 163.467 201.848 163.467C202.809 163.467 203.557 163.784 204.09 164.417C204.623 165.05 204.89 165.957 204.89 167.138V167.664H199.879C199.897 168.393 200.109 168.983 200.515 169.435C200.925 169.881 201.444 170.104 202.073 170.104C202.52 170.104 202.898 170.013 203.208 169.831C203.518 169.649 203.789 169.407 204.021 169.106L204.794 169.708C204.174 170.66 203.244 171.137 202.005 171.137ZM201.848 164.506C201.337 164.506 200.909 164.693 200.562 165.066C200.216 165.436 200.002 165.955 199.92 166.625H203.625V166.529C203.589 165.887 203.415 165.39 203.105 165.039C202.796 164.684 202.376 164.506 201.848 164.506ZM211.773 164.629H209.292V171H208.027V164.629H205.594V163.604H211.773V164.629ZM220.544 165.627C220.544 165.281 220.412 165.007 220.147 164.807C219.883 164.602 219.521 164.499 219.061 164.499C218.614 164.499 218.24 164.615 217.939 164.848C217.643 165.08 217.495 165.354 217.495 165.668H216.237C216.237 165.025 216.506 164.499 217.044 164.089C217.582 163.679 218.254 163.474 219.061 163.474C219.926 163.474 220.601 163.66 221.084 164.034C221.567 164.403 221.809 164.932 221.809 165.62C221.809 165.953 221.708 166.258 221.508 166.536C221.307 166.814 221.022 167.035 220.653 167.199C221.515 167.491 221.945 168.065 221.945 168.922C221.945 169.601 221.683 170.139 221.159 170.535C220.635 170.932 219.936 171.13 219.061 171.13C218.208 171.13 217.504 170.923 216.948 170.508C216.397 170.089 216.121 169.523 216.121 168.812H217.379C217.379 169.173 217.538 169.482 217.857 169.742C218.181 169.997 218.582 170.125 219.061 170.125C219.544 170.125 219.933 170.013 220.229 169.79C220.526 169.567 220.674 169.277 220.674 168.922C220.674 168.507 220.549 168.211 220.298 168.033C220.052 167.851 219.667 167.76 219.143 167.76H217.878V166.693H219.252C220.113 166.671 220.544 166.315 220.544 165.627ZM228.152 171C228.079 170.854 228.02 170.594 227.975 170.221C227.387 170.831 226.685 171.137 225.869 171.137C225.14 171.137 224.541 170.932 224.071 170.521C223.606 170.107 223.374 169.583 223.374 168.949C223.374 168.179 223.666 167.582 224.249 167.158C224.837 166.73 225.662 166.516 226.724 166.516H227.954V165.935C227.954 165.493 227.822 165.142 227.558 164.882C227.293 164.618 226.904 164.485 226.389 164.485C225.938 164.485 225.559 164.599 225.254 164.827C224.949 165.055 224.796 165.331 224.796 165.654H223.524C223.524 165.285 223.654 164.93 223.914 164.588C224.178 164.242 224.534 163.968 224.98 163.768C225.432 163.567 225.926 163.467 226.464 163.467C227.316 163.467 227.984 163.681 228.467 164.109C228.95 164.533 229.201 165.119 229.219 165.866V169.271C229.219 169.95 229.305 170.49 229.479 170.891V171H228.152ZM226.054 170.036C226.45 170.036 226.826 169.934 227.182 169.729C227.537 169.523 227.795 169.257 227.954 168.929V167.411H226.963C225.413 167.411 224.639 167.865 224.639 168.771C224.639 169.168 224.771 169.478 225.035 169.701C225.299 169.924 225.639 170.036 226.054 170.036ZM237.251 171H235.986V164.649H232.582V171H231.311V163.604H237.251V171ZM243.848 171C243.775 170.854 243.715 170.594 243.67 170.221C243.082 170.831 242.38 171.137 241.564 171.137C240.835 171.137 240.236 170.932 239.767 170.521C239.302 170.107 239.069 169.583 239.069 168.949C239.069 168.179 239.361 167.582 239.944 167.158C240.532 166.73 241.357 166.516 242.419 166.516H243.649V165.935C243.649 165.493 243.517 165.142 243.253 164.882C242.989 164.618 242.599 164.485 242.084 164.485C241.633 164.485 241.255 164.599 240.949 164.827C240.644 165.055 240.491 165.331 240.491 165.654H239.22C239.22 165.285 239.35 164.93 239.609 164.588C239.874 164.242 240.229 163.968 240.676 163.768C241.127 163.567 241.621 163.467 242.159 163.467C243.011 163.467 243.679 163.681 244.162 164.109C244.645 164.533 244.896 165.119 244.914 165.866V169.271C244.914 169.95 245.001 170.49 245.174 170.891V171H243.848ZM241.749 170.036C242.146 170.036 242.521 169.934 242.877 169.729C243.232 169.523 243.49 169.257 243.649 168.929V167.411H242.658C241.109 167.411 240.334 167.865 240.334 168.771C240.334 169.168 240.466 169.478 240.73 169.701C240.995 169.924 241.334 170.036 241.749 170.036ZM249.863 170.104C250.314 170.104 250.709 169.968 251.046 169.694C251.383 169.421 251.57 169.079 251.606 168.669H252.803C252.78 169.093 252.634 169.496 252.365 169.879C252.096 170.262 251.736 170.567 251.285 170.795C250.839 171.023 250.365 171.137 249.863 171.137C248.856 171.137 248.054 170.802 247.457 170.132C246.865 169.457 246.568 168.537 246.568 167.37V167.158C246.568 166.438 246.701 165.798 246.965 165.237C247.229 164.677 247.607 164.242 248.1 163.932C248.596 163.622 249.182 163.467 249.856 163.467C250.686 163.467 251.374 163.715 251.921 164.212C252.472 164.709 252.766 165.354 252.803 166.146H251.606C251.57 165.668 251.388 165.276 251.06 164.971C250.736 164.661 250.335 164.506 249.856 164.506C249.214 164.506 248.715 164.738 248.359 165.203C248.008 165.663 247.833 166.331 247.833 167.206V167.445C247.833 168.298 248.008 168.954 248.359 169.414C248.71 169.874 249.212 170.104 249.863 170.104ZM253.89 167.233C253.89 166.509 254.031 165.857 254.313 165.278C254.601 164.7 254.997 164.253 255.503 163.938C256.013 163.624 256.594 163.467 257.246 163.467C258.253 163.467 259.067 163.815 259.687 164.513C260.311 165.21 260.623 166.137 260.623 167.295V167.384C260.623 168.104 260.484 168.751 260.206 169.325C259.933 169.895 259.538 170.339 259.023 170.658C258.513 170.977 257.925 171.137 257.26 171.137C256.257 171.137 255.444 170.788 254.819 170.091C254.2 169.394 253.89 168.471 253.89 167.322V167.233ZM255.161 167.384C255.161 168.204 255.35 168.863 255.729 169.359C256.111 169.856 256.622 170.104 257.26 170.104C257.902 170.104 258.413 169.854 258.791 169.353C259.169 168.847 259.358 168.14 259.358 167.233C259.358 166.422 259.165 165.766 258.777 165.265C258.395 164.759 257.884 164.506 257.246 164.506C256.622 164.506 256.118 164.754 255.735 165.251C255.353 165.748 255.161 166.459 255.161 167.384ZM262.325 171V163.604H265.21C266.194 163.604 266.949 163.777 267.473 164.123C268.001 164.465 268.266 164.968 268.266 165.634C268.266 165.976 268.163 166.285 267.958 166.563C267.753 166.837 267.45 167.047 267.049 167.192C267.495 167.297 267.853 167.502 268.122 167.808C268.396 168.113 268.532 168.478 268.532 168.901C268.532 169.58 268.282 170.1 267.78 170.46C267.284 170.82 266.579 171 265.668 171H262.325ZM263.59 167.753V169.981H265.682C266.21 169.981 266.604 169.883 266.864 169.688C267.129 169.492 267.261 169.216 267.261 168.86C267.261 168.122 266.718 167.753 265.634 167.753H263.59ZM263.59 166.741H265.224C266.409 166.741 267.001 166.395 267.001 165.702C267.001 165.009 266.44 164.652 265.319 164.629H263.59V166.741ZM270.234 170.337C270.234 170.118 270.298 169.936 270.426 169.79C270.558 169.644 270.754 169.571 271.014 169.571C271.273 169.571 271.469 169.644 271.602 169.79C271.738 169.936 271.807 170.118 271.807 170.337C271.807 170.547 271.738 170.722 271.602 170.863C271.469 171.005 271.273 171.075 271.014 171.075C270.754 171.075 270.558 171.005 270.426 170.863C270.298 170.722 270.234 170.547 270.234 170.337ZM285.219 171H283.899V166.399H278.882V171H277.569V161.047H278.882V165.326H283.899V161.047H285.219V171ZM291.918 171C291.845 170.854 291.786 170.594 291.74 170.221C291.152 170.831 290.451 171.137 289.635 171.137C288.906 171.137 288.306 170.932 287.837 170.521C287.372 170.107 287.14 169.583 287.14 168.949C287.14 168.179 287.431 167.582 288.015 167.158C288.603 166.73 289.427 166.516 290.489 166.516H291.72V165.935C291.72 165.493 291.588 165.142 291.323 164.882C291.059 164.618 290.669 164.485 290.154 164.485C289.703 164.485 289.325 164.599 289.02 164.827C288.714 165.055 288.562 165.331 288.562 165.654H287.29C287.29 165.285 287.42 164.93 287.68 164.588C287.944 164.242 288.299 163.968 288.746 163.768C289.197 163.567 289.692 163.467 290.229 163.467C291.082 163.467 291.749 163.681 292.232 164.109C292.715 164.533 292.966 165.119 292.984 165.866V169.271C292.984 169.95 293.071 170.49 293.244 170.891V171H291.918ZM289.819 170.036C290.216 170.036 290.592 169.934 290.947 169.729C291.303 169.523 291.56 169.257 291.72 168.929V167.411H290.729C289.179 167.411 288.404 167.865 288.404 168.771C288.404 169.168 288.536 169.478 288.801 169.701C289.065 169.924 289.405 170.036 289.819 170.036ZM300.866 167.787H299.978V171H298.713V167.787H297.824L295.753 171H294.153L296.799 167.172L294.406 163.604H295.938L297.845 166.666H298.713V163.604H299.978V166.666H300.839L302.76 163.604H304.291L301.892 167.179L304.537 171H302.938L300.866 167.787ZM309.944 169.325L312.46 163.604H314.039V171H312.774V165.62L310.382 171H309.507L307.066 165.504V171H305.802V163.604H307.442L309.944 169.325ZM320.861 163.604H322.126V171H320.861V165.606L317.45 171H316.186V163.604H317.45V169.004L320.861 163.604ZM329.652 164.629H327.171V171H325.906V164.629H323.473V163.604H329.652V164.629ZM333.405 171.137C332.403 171.137 331.587 170.809 330.958 170.152C330.329 169.492 330.015 168.61 330.015 167.507V167.274C330.015 166.541 330.154 165.887 330.432 165.312C330.714 164.734 331.106 164.283 331.607 163.959C332.113 163.631 332.66 163.467 333.248 163.467C334.21 163.467 334.957 163.784 335.49 164.417C336.023 165.05 336.29 165.957 336.29 167.138V167.664H331.279C331.298 168.393 331.509 168.983 331.915 169.435C332.325 169.881 332.845 170.104 333.474 170.104C333.92 170.104 334.299 170.013 334.608 169.831C334.918 169.649 335.189 169.407 335.422 169.106L336.194 169.708C335.575 170.66 334.645 171.137 333.405 171.137ZM333.248 164.506C332.738 164.506 332.309 164.693 331.963 165.066C331.617 165.436 331.402 165.955 331.32 166.625H335.025V166.529C334.989 165.887 334.816 165.39 334.506 165.039C334.196 164.684 333.777 164.506 333.248 164.506ZM103.355 183.849H102.433V187H101.161V179.604H102.433V182.734H103.26L105.748 179.604H107.279L104.354 183.158L107.525 187H105.919L103.355 183.849ZM114.655 187H113.391V183.842H109.993V187H108.722V179.604H109.993V182.81H113.391V179.604H114.655V187ZM116.357 183.233C116.357 182.509 116.499 181.857 116.781 181.278C117.068 180.7 117.465 180.253 117.971 179.938C118.481 179.624 119.062 179.467 119.714 179.467C120.721 179.467 121.535 179.815 122.154 180.513C122.779 181.21 123.091 182.137 123.091 183.295V183.384C123.091 184.104 122.952 184.751 122.674 185.325C122.4 185.895 122.006 186.339 121.491 186.658C120.981 186.977 120.393 187.137 119.728 187.137C118.725 187.137 117.911 186.788 117.287 186.091C116.667 185.394 116.357 184.471 116.357 183.322V183.233ZM117.629 183.384C117.629 184.204 117.818 184.863 118.196 185.359C118.579 185.856 119.09 186.104 119.728 186.104C120.37 186.104 120.881 185.854 121.259 185.353C121.637 184.847 121.826 184.14 121.826 183.233C121.826 182.422 121.632 181.766 121.245 181.265C120.862 180.759 120.352 180.506 119.714 180.506C119.09 180.506 118.586 180.754 118.203 181.251C117.82 181.748 117.629 182.459 117.629 183.384ZM130.727 187H129.462V180.649H126.058V187H124.786V179.604H130.727V187ZM135.061 183.849H134.138V187H132.866V179.604H134.138V182.734H134.965L137.453 179.604H138.984L136.059 183.158L139.23 187H137.624L135.061 183.849ZM142.737 185.147L144.46 179.604H145.813L142.84 188.142C142.38 189.372 141.648 189.987 140.646 189.987L140.406 189.967L139.935 189.878V188.853L140.276 188.88C140.705 188.88 141.037 188.793 141.274 188.62C141.516 188.447 141.714 188.13 141.869 187.67L142.149 186.918L139.511 179.604H140.892L142.737 185.147ZM150.359 185.968L150.797 185.428C151.289 184.79 151.569 183.833 151.638 182.557L151.754 179.604H156.519V185.968H157.469V189.174H156.204V187H151.043V189.174H149.778L149.785 185.968H150.359ZM151.856 185.968H155.254V180.772H152.978L152.902 182.536C152.825 184.008 152.476 185.152 151.856 185.968ZM158.535 183.233C158.535 182.509 158.676 181.857 158.959 181.278C159.246 180.7 159.643 180.253 160.148 179.938C160.659 179.624 161.24 179.467 161.892 179.467C162.899 179.467 163.712 179.815 164.332 180.513C164.956 181.21 165.269 182.137 165.269 183.295V183.384C165.269 184.104 165.13 184.751 164.852 185.325C164.578 185.895 164.184 186.339 163.669 186.658C163.159 186.977 162.571 187.137 161.905 187.137C160.903 187.137 160.089 186.788 159.465 186.091C158.845 185.394 158.535 184.471 158.535 183.322V183.233ZM159.807 183.384C159.807 184.204 159.996 184.863 160.374 185.359C160.757 185.856 161.267 186.104 161.905 186.104C162.548 186.104 163.058 185.854 163.437 185.353C163.815 184.847 164.004 184.14 164.004 183.233C164.004 182.422 163.81 181.766 163.423 181.265C163.04 180.759 162.53 180.506 161.892 180.506C161.267 180.506 160.764 180.754 160.381 181.251C159.998 181.748 159.807 182.459 159.807 183.384ZM170.102 180.027C171.031 180.027 171.774 180.34 172.33 180.964C172.891 181.584 173.171 182.402 173.171 183.418V183.534C173.171 184.231 173.036 184.856 172.768 185.407C172.499 185.954 172.111 186.38 171.605 186.686C171.104 186.986 170.525 187.137 169.869 187.137C168.876 187.137 168.076 186.806 167.47 186.146C166.864 185.48 166.561 184.589 166.561 183.473V182.857C166.561 181.303 166.848 180.068 167.422 179.152C168.001 178.236 168.853 177.678 169.979 177.478C170.617 177.364 171.047 177.225 171.271 177.061C171.494 176.896 171.605 176.671 171.605 176.384H172.645C172.645 176.953 172.515 177.398 172.255 177.717C172 178.036 171.59 178.261 171.024 178.394L170.081 178.605C169.329 178.783 168.764 179.084 168.386 179.508C168.012 179.927 167.768 180.488 167.654 181.189C168.324 180.415 169.14 180.027 170.102 180.027ZM169.855 181.066C169.236 181.066 168.743 181.276 168.379 181.695C168.014 182.11 167.832 182.687 167.832 183.425V183.534C167.832 184.327 168.014 184.956 168.379 185.421C168.748 185.881 169.245 186.111 169.869 186.111C170.498 186.111 170.995 185.879 171.359 185.414C171.724 184.949 171.906 184.27 171.906 183.377C171.906 182.68 171.722 182.121 171.353 181.702C170.988 181.278 170.489 181.066 169.855 181.066ZM179.159 187C179.086 186.854 179.027 186.594 178.981 186.221C178.394 186.831 177.692 187.137 176.876 187.137C176.147 187.137 175.548 186.932 175.078 186.521C174.613 186.107 174.381 185.583 174.381 184.949C174.381 184.179 174.673 183.582 175.256 183.158C175.844 182.73 176.669 182.516 177.73 182.516H178.961V181.935C178.961 181.493 178.829 181.142 178.564 180.882C178.3 180.618 177.91 180.485 177.396 180.485C176.944 180.485 176.566 180.599 176.261 180.827C175.955 181.055 175.803 181.331 175.803 181.654H174.531C174.531 181.285 174.661 180.93 174.921 180.588C175.185 180.242 175.541 179.968 175.987 179.768C176.438 179.567 176.933 179.467 177.471 179.467C178.323 179.467 178.991 179.681 179.474 180.109C179.957 180.533 180.207 181.119 180.226 181.866V185.271C180.226 185.95 180.312 186.49 180.485 186.891V187H179.159ZM177.061 186.036C177.457 186.036 177.833 185.934 178.188 185.729C178.544 185.523 178.801 185.257 178.961 184.929V183.411H177.97C176.42 183.411 175.646 183.865 175.646 184.771C175.646 185.168 175.778 185.478 176.042 185.701C176.306 185.924 176.646 186.036 177.061 186.036ZM182.324 187V179.604H185.209C186.193 179.604 186.948 179.777 187.472 180.123C188 180.465 188.265 180.968 188.265 181.634C188.265 181.976 188.162 182.285 187.957 182.563C187.752 182.837 187.449 183.047 187.048 183.192C187.494 183.297 187.852 183.502 188.121 183.808C188.395 184.113 188.531 184.478 188.531 184.901C188.531 185.58 188.281 186.1 187.779 186.46C187.283 186.82 186.578 187 185.667 187H182.324ZM183.589 183.753V185.981H185.681C186.209 185.981 186.604 185.883 186.863 185.688C187.128 185.492 187.26 185.216 187.26 184.86C187.26 184.122 186.717 183.753 185.633 183.753H183.589ZM183.589 182.741H185.223C186.408 182.741 187 182.395 187 181.702C187 181.009 186.439 180.652 185.318 180.629H183.589V182.741ZM194.991 179.604H196.256V187H194.991V181.606L191.58 187H190.315V179.604H191.58V185.004L194.991 179.604ZM203.782 180.629H201.301V187H200.036V180.629H197.603V179.604H203.782V180.629ZM206.394 182.153H208.314C209.153 182.162 209.816 182.381 210.304 182.81C210.791 183.238 211.035 183.819 211.035 184.553C211.035 185.291 210.785 185.883 210.283 186.33C209.782 186.777 209.107 187 208.26 187H205.129V179.604H206.394V182.153ZM206.394 183.186V185.968H208.273C208.747 185.968 209.114 185.847 209.374 185.605C209.634 185.359 209.764 185.024 209.764 184.601C209.764 184.19 209.636 183.855 209.381 183.596C209.13 183.331 208.777 183.195 208.321 183.186H206.394ZM219.054 186.104C219.505 186.104 219.899 185.968 220.236 185.694C220.574 185.421 220.76 185.079 220.797 184.669H221.993C221.97 185.093 221.825 185.496 221.556 185.879C221.287 186.262 220.927 186.567 220.476 186.795C220.029 187.023 219.555 187.137 219.054 187.137C218.047 187.137 217.244 186.802 216.647 186.132C216.055 185.457 215.759 184.537 215.759 183.37V183.158C215.759 182.438 215.891 181.798 216.155 181.237C216.42 180.677 216.798 180.242 217.29 179.932C217.787 179.622 218.372 179.467 219.047 179.467C219.876 179.467 220.564 179.715 221.111 180.212C221.663 180.709 221.957 181.354 221.993 182.146H220.797C220.76 181.668 220.578 181.276 220.25 180.971C219.926 180.661 219.525 180.506 219.047 180.506C218.404 180.506 217.905 180.738 217.55 181.203C217.199 181.663 217.023 182.331 217.023 183.206V183.445C217.023 184.298 217.199 184.954 217.55 185.414C217.901 185.874 218.402 186.104 219.054 186.104ZM224.796 182.153H226.717C227.555 182.162 228.218 182.381 228.706 182.81C229.194 183.238 229.438 183.819 229.438 184.553C229.438 185.291 229.187 185.883 228.686 186.33C228.184 186.777 227.51 187 226.662 187H223.531V179.604H224.796V182.153ZM232.076 187H230.805V179.604H232.076V187ZM224.796 183.186V185.968H226.676C227.15 185.968 227.517 185.847 227.776 185.605C228.036 185.359 228.166 185.024 228.166 184.601C228.166 184.19 228.038 183.855 227.783 183.596C227.533 183.331 227.179 183.195 226.724 183.186H224.796ZM240.532 183.384C240.532 184.509 240.275 185.416 239.76 186.104C239.245 186.793 238.548 187.137 237.668 187.137C236.77 187.137 236.064 186.852 235.549 186.282V189.844H234.284V179.604H235.439L235.501 180.424C236.016 179.786 236.731 179.467 237.647 179.467C238.536 179.467 239.238 179.802 239.753 180.472C240.272 181.142 240.532 182.074 240.532 183.268V183.384ZM239.268 183.24C239.268 182.406 239.09 181.748 238.734 181.265C238.379 180.782 237.891 180.54 237.271 180.54C236.506 180.54 235.932 180.88 235.549 181.559V185.093C235.927 185.767 236.506 186.104 237.285 186.104C237.891 186.104 238.372 185.865 238.728 185.387C239.088 184.904 239.268 184.188 239.268 183.24ZM243.526 182.153H245.447C246.286 182.162 246.949 182.381 247.437 182.81C247.924 183.238 248.168 183.819 248.168 184.553C248.168 185.291 247.917 185.883 247.416 186.33C246.915 186.777 246.24 187 245.393 187H242.262V179.604H243.526V182.153ZM243.526 183.186V185.968H245.406C245.88 185.968 246.247 185.847 246.507 185.605C246.767 185.359 246.896 185.024 246.896 184.601C246.896 184.19 246.769 183.855 246.514 183.596C246.263 183.331 245.91 183.195 245.454 183.186H243.526ZM252.816 187.137C251.814 187.137 250.998 186.809 250.369 186.152C249.74 185.492 249.426 184.61 249.426 183.507V183.274C249.426 182.541 249.565 181.887 249.843 181.312C250.125 180.734 250.517 180.283 251.019 179.959C251.524 179.631 252.071 179.467 252.659 179.467C253.621 179.467 254.368 179.784 254.901 180.417C255.435 181.05 255.701 181.957 255.701 183.138V183.664H250.69C250.709 184.393 250.921 184.983 251.326 185.435C251.736 185.881 252.256 186.104 252.885 186.104C253.331 186.104 253.71 186.013 254.02 185.831C254.329 185.649 254.601 185.407 254.833 185.106L255.605 185.708C254.986 186.66 254.056 187.137 252.816 187.137ZM252.659 180.506C252.149 180.506 251.72 180.693 251.374 181.066C251.028 181.436 250.813 181.955 250.731 182.625H254.437V182.529C254.4 181.887 254.227 181.39 253.917 181.039C253.607 180.684 253.188 180.506 252.659 180.506ZM257.198 186.337C257.198 186.118 257.262 185.936 257.39 185.79C257.522 185.644 257.718 185.571 257.978 185.571C258.237 185.571 258.433 185.644 258.565 185.79C258.702 185.936 258.771 186.118 258.771 186.337C258.771 186.547 258.702 186.722 258.565 186.863C258.433 187.005 258.237 187.075 257.978 187.075C257.718 187.075 257.522 187.005 257.39 186.863C257.262 186.722 257.198 186.547 257.198 186.337Z" fill="black"/>
<circle cx="181" cy="128" r="15" fill="url(#paint0_linear)"/>
<path d="M181 117C174.928 117 170 121.928 170 128C170 134.072 174.928 139 181 139C187.072 139 192 134.072 192 128C191.99 127.94 191.958 127.885 191.911 127.846C191.865 127.806 191.805 127.785 191.744 127.785C191.683 127.785 191.624 127.806 191.577 127.846C191.53 127.885 191.499 127.94 191.488 128C191.488 133.796 186.796 138.488 181 138.488C175.204 138.488 170.512 133.796 170.512 128C170.512 122.204 175.204 117.512 181 117.512C186.277 117.512 190.639 121.435 191.376 126.505C191.382 126.539 191.394 126.571 191.411 126.6C191.429 126.629 191.452 126.654 191.48 126.674C191.507 126.694 191.538 126.709 191.571 126.717C191.604 126.725 191.639 126.726 191.672 126.721C191.706 126.716 191.738 126.704 191.767 126.686C191.796 126.668 191.821 126.645 191.841 126.618C191.861 126.59 191.876 126.559 191.884 126.526C191.892 126.493 191.893 126.459 191.888 126.425C191.114 121.107 186.53 117 181 117ZM180.744 121.605C180.041 121.605 179.465 122.18 179.465 122.884C179.465 123.587 180.041 124.163 180.744 124.163C181.448 124.163 182.023 123.587 182.023 122.884C182.023 122.18 181.448 121.605 180.744 121.605ZM180.744 122.116C181.171 122.116 181.512 122.457 181.512 122.884C181.512 123.311 181.171 123.651 180.744 123.651C180.317 123.651 179.977 123.311 179.977 122.884C179.977 122.457 180.317 122.116 180.744 122.116ZM179.161 125.186C179.093 125.192 179.031 125.225 178.987 125.278C178.944 125.33 178.923 125.398 178.93 125.466C178.936 125.534 178.969 125.596 179.021 125.64C179.074 125.683 179.141 125.704 179.209 125.698H180.744V133.372H179.209C179.193 133.371 179.177 133.371 179.161 133.372C179.093 133.378 179.031 133.412 178.987 133.464C178.944 133.516 178.923 133.584 178.93 133.652C178.936 133.72 178.969 133.782 179.021 133.826C179.074 133.869 179.141 133.89 179.209 133.884H182.791C182.825 133.884 182.858 133.878 182.89 133.865C182.921 133.853 182.95 133.834 182.974 133.81C182.998 133.786 183.017 133.758 183.03 133.727C183.043 133.695 183.05 133.662 183.05 133.628C183.05 133.594 183.043 133.56 183.03 133.529C183.017 133.498 182.998 133.47 182.974 133.446C182.95 133.422 182.921 133.403 182.89 133.391C182.858 133.378 182.825 133.372 182.791 133.372H181.256V125.442C181.256 125.374 181.229 125.309 181.181 125.261C181.133 125.213 181.068 125.186 181 125.186H179.209C179.193 125.185 179.177 125.185 179.161 125.186V125.186Z" fill="black"/>
<rect x="81" y="522" width="200" height="46" rx="23" fill="#2E7D32"/>
<path d="M136.165 552.447H134.524V550H127.969V552.447H126.301L126.246 548.619H127.046C127.442 548.236 127.759 547.68 127.996 546.951C128.233 546.217 128.386 545.388 128.454 544.463L128.714 540.047H134.989V548.619H136.254L136.165 552.447ZM129.001 548.619H133.267V541.441H130.361L130.197 544.244C130.074 546.117 129.675 547.576 129.001 548.619ZM137.081 546.233C137.081 545.509 137.225 544.857 137.512 544.278C137.799 543.695 138.202 543.248 138.722 542.938C139.241 542.624 139.838 542.467 140.513 542.467C141.511 542.467 142.32 542.788 142.939 543.431C143.564 544.073 143.901 544.925 143.951 545.987L143.958 546.377C143.958 547.106 143.817 547.758 143.534 548.332C143.256 548.906 142.855 549.351 142.331 549.665C141.812 549.979 141.21 550.137 140.526 550.137C139.483 550.137 138.646 549.79 138.018 549.098C137.393 548.4 137.081 547.473 137.081 546.315V546.233ZM138.742 546.377C138.742 547.138 138.899 547.735 139.214 548.168C139.528 548.596 139.966 548.811 140.526 548.811C141.087 548.811 141.522 548.592 141.832 548.154C142.146 547.717 142.304 547.076 142.304 546.233C142.304 545.486 142.142 544.894 141.818 544.456C141.499 544.019 141.064 543.8 140.513 543.8C139.97 543.8 139.54 544.016 139.221 544.449C138.902 544.878 138.742 545.52 138.742 546.377ZM148.846 543.014C149.775 543.014 150.521 543.326 151.081 543.95C151.642 544.57 151.922 545.413 151.922 546.479V546.562C151.922 547.628 151.617 548.492 151.006 549.152C150.4 549.813 149.575 550.144 148.531 550.144C147.515 550.144 146.695 549.806 146.07 549.132C145.446 548.457 145.134 547.537 145.134 546.37V545.892C145.134 544.297 145.416 543.034 145.981 542.104C146.547 541.175 147.39 540.594 148.511 540.361C149.14 540.234 149.545 540.099 149.728 539.958C149.914 539.812 150.008 539.616 150.008 539.37H151.348C151.348 539.83 151.272 540.204 151.122 540.491C150.972 540.778 150.742 541.013 150.432 541.195C150.122 541.373 149.589 541.542 148.832 541.701C148.139 541.847 147.611 542.107 147.246 542.48C146.886 542.854 146.645 543.371 146.521 544.032C147.182 543.353 147.957 543.014 148.846 543.014ZM148.518 544.347C147.98 544.347 147.558 544.529 147.253 544.894C146.948 545.254 146.795 545.81 146.795 546.562C146.795 547.272 146.945 547.826 147.246 548.223C147.547 548.619 147.975 548.817 148.531 548.817C149.083 548.817 149.509 548.619 149.81 548.223C150.115 547.822 150.268 547.22 150.268 546.418C150.268 545.78 150.115 545.276 149.81 544.907C149.509 544.534 149.078 544.347 148.518 544.347ZM157.644 550C157.571 549.859 157.507 549.629 157.452 549.31C156.924 549.861 156.276 550.137 155.511 550.137C154.768 550.137 154.162 549.925 153.692 549.501C153.223 549.077 152.988 548.553 152.988 547.929C152.988 547.14 153.28 546.536 153.863 546.117C154.451 545.693 155.29 545.481 156.379 545.481H157.397V544.996C157.397 544.613 157.29 544.308 157.076 544.08C156.862 543.848 156.536 543.731 156.099 543.731C155.72 543.731 155.41 543.827 155.169 544.019C154.927 544.205 154.807 544.445 154.807 544.736H153.146C153.146 544.331 153.28 543.952 153.549 543.602C153.818 543.246 154.182 542.968 154.643 542.768C155.107 542.567 155.625 542.467 156.194 542.467C157.06 542.467 157.751 542.686 158.266 543.123C158.781 543.556 159.045 544.167 159.059 544.955V548.291C159.059 548.956 159.152 549.487 159.339 549.884V550H157.644ZM155.818 548.804C156.146 548.804 156.454 548.724 156.741 548.564C157.033 548.405 157.252 548.191 157.397 547.922V546.527H156.502C155.887 546.527 155.424 546.634 155.114 546.849C154.804 547.063 154.649 547.366 154.649 547.758C154.649 548.077 154.754 548.332 154.964 548.523C155.178 548.71 155.463 548.804 155.818 548.804ZM160.925 550V542.604H163.926C164.938 542.604 165.708 542.781 166.236 543.137C166.765 543.488 167.029 543.993 167.029 544.654C167.029 544.996 166.922 545.304 166.708 545.577C166.498 545.846 166.186 546.053 165.771 546.199C166.255 546.299 166.637 546.502 166.92 546.808C167.202 547.113 167.344 547.473 167.344 547.888C167.344 548.576 167.089 549.1 166.578 549.46C166.072 549.82 165.343 550 164.391 550H160.925ZM162.586 546.849V548.688H164.404C165.257 548.688 165.683 548.382 165.683 547.771C165.683 547.156 165.25 546.849 164.384 546.849H162.586ZM162.586 545.659H163.953C164.896 545.659 165.368 545.381 165.368 544.825C165.368 544.242 164.922 543.941 164.028 543.923H162.586V545.659ZM173.4 542.604H175.055V550H173.4V545.064L170.502 550H168.848V542.604H170.502V547.539L173.4 542.604ZM182.643 543.923H180.243V550H178.582V543.923H176.21V542.604H182.643V543.923ZM185.541 544.955H187.168C187.774 544.955 188.303 545.06 188.754 545.27C189.205 545.479 189.547 545.773 189.779 546.151C190.016 546.53 190.135 546.969 190.135 547.471C190.135 548.232 189.866 548.842 189.328 549.303C188.79 549.763 188.075 549.995 187.182 550H183.88V542.604H185.541V544.955ZM185.541 546.288V548.674H187.161C187.567 548.674 187.886 548.574 188.118 548.373C188.355 548.168 188.474 547.879 188.474 547.505C188.474 547.131 188.357 546.837 188.125 546.623C187.897 546.404 187.587 546.293 187.195 546.288H185.541ZM197.989 548.811C198.404 548.811 198.748 548.69 199.021 548.448C199.295 548.207 199.441 547.908 199.459 547.553H201.024C201.006 548.013 200.863 548.444 200.594 548.845C200.325 549.241 199.96 549.556 199.5 549.788C199.04 550.021 198.543 550.137 198.01 550.137C196.975 550.137 196.155 549.802 195.549 549.132C194.943 548.462 194.64 547.537 194.64 546.356V546.186C194.64 545.06 194.94 544.16 195.542 543.485C196.144 542.806 196.964 542.467 198.003 542.467C198.882 542.467 199.598 542.724 200.149 543.239C200.705 543.75 200.997 544.422 201.024 545.256H199.459C199.441 544.832 199.295 544.483 199.021 544.21C198.753 543.937 198.409 543.8 197.989 543.8C197.451 543.8 197.037 543.996 196.745 544.388C196.453 544.775 196.305 545.365 196.301 546.158V546.425C196.301 547.227 196.444 547.826 196.731 548.223C197.023 548.615 197.442 548.811 197.989 548.811ZM204.066 544.955H205.693C206.299 544.955 206.828 545.06 207.279 545.27C207.73 545.479 208.072 545.773 208.305 546.151C208.542 546.53 208.66 546.969 208.66 547.471C208.66 548.232 208.391 548.842 207.854 549.303C207.316 549.763 206.6 549.995 205.707 550H202.405V542.604H204.066V544.955ZM211.552 550H209.891V542.604H211.552V550ZM204.066 546.288V548.674H205.687C206.092 548.674 206.411 548.574 206.644 548.373C206.881 548.168 206.999 547.879 206.999 547.505C206.999 547.131 206.883 546.837 206.65 546.623C206.423 546.404 206.113 546.293 205.721 546.288H204.066ZM220.021 546.377C220.021 547.521 219.762 548.435 219.242 549.118C218.723 549.797 218.025 550.137 217.15 550.137C216.339 550.137 215.69 549.87 215.202 549.337V552.844H213.541V542.604H215.072L215.141 543.355C215.628 542.763 216.291 542.467 217.13 542.467C218.032 542.467 218.739 542.804 219.249 543.479C219.764 544.148 220.021 545.08 220.021 546.274V546.377ZM218.367 546.233C218.367 545.495 218.219 544.91 217.923 544.477C217.631 544.044 217.212 543.827 216.665 543.827C215.986 543.827 215.498 544.107 215.202 544.668V547.949C215.503 548.523 215.995 548.811 216.679 548.811C217.207 548.811 217.62 548.599 217.916 548.175C218.217 547.746 218.367 547.099 218.367 546.233ZM223.084 544.955H224.711C225.317 544.955 225.846 545.06 226.297 545.27C226.748 545.479 227.09 545.773 227.322 546.151C227.559 546.53 227.678 546.969 227.678 547.471C227.678 548.232 227.409 548.842 226.871 549.303C226.333 549.763 225.618 549.995 224.725 550H221.423V542.604H223.084V544.955ZM223.084 546.288V548.674H224.704C225.11 548.674 225.429 548.574 225.661 548.373C225.898 548.168 226.017 547.879 226.017 547.505C226.017 547.131 225.9 546.837 225.668 546.623C225.44 546.404 225.13 546.293 224.738 546.288H223.084ZM232.265 550.137C231.212 550.137 230.357 549.806 229.701 549.146C229.049 548.48 228.724 547.596 228.724 546.493V546.288C228.724 545.55 228.865 544.891 229.147 544.312C229.435 543.729 229.836 543.276 230.351 542.952C230.866 542.629 231.44 542.467 232.073 542.467C233.08 542.467 233.857 542.788 234.404 543.431C234.956 544.073 235.231 544.982 235.231 546.158V546.828H230.398C230.449 547.439 230.651 547.922 231.007 548.277C231.367 548.633 231.818 548.811 232.36 548.811C233.121 548.811 233.741 548.503 234.22 547.888L235.115 548.742C234.819 549.184 234.423 549.528 233.926 549.774C233.434 550.016 232.88 550.137 232.265 550.137ZM232.066 543.8C231.611 543.8 231.242 543.959 230.959 544.278C230.681 544.597 230.503 545.042 230.426 545.611H233.591V545.488C233.554 544.932 233.406 544.513 233.146 544.23C232.887 543.943 232.527 543.8 232.066 543.8Z" fill="white"/>
</g>
<defs>
<linearGradient id="paint0_linear" x1="166" y1="113" x2="196" y2="143" gradientUnits="userSpaceOnUse">
<stop stop-color="#FFA8A8"/>
<stop offset="1" stop-color="#FCFF00"/>
</linearGradient>
<clipPath id="clip0">
<rect width="360" height="640" fill="white"/>
</clipPath>
</defs>
</svg>
